<svg width="200" height="200" xmlns="http://www.w3.org/2000/svg">

 <g>
  <title>Layer 1</title>
  <line id="svg_8" y2="392" x2="806" y1="390" x1="802" stroke="#000" fill="none"/>
  <g stroke="null" id="svg_24">
   <path stroke="#000" id="svg_21" d="m25.91203,146.13323l152.06005,0.05662l-4.93438,7.11221l-142.13303,-0.16985l-4.99265,-6.99898l0.00001,0zm1.04497,-94.60848l150.02816,-0.16985l4.35398,7.29604l-158.79425,0.05662l4.41211,-7.18281zm-14.80595,47.40703l179.52387,-0.16985l-0.23206,7.29604l-179.1757,-0.11323l-0.11611,-7.01296zm179.67247,0.6767c0,48.30152 -40.29909,87.5953 -89.84151,87.5953c-49.52101,0 -89.81259,-39.30088 -89.81259,-87.5953c0,-48.29465 40.29886,-87.58843 89.81259,-87.58843c49.54242,-0.0071 89.84151,39.29377 89.84151,87.58843zm-89.83445,-94.60849c-53.47406,0 -96.98908,42.43739 -96.98908,94.60137c0,52.17109 43.51503,94.60847 96.98908,94.60847c53.50317,0 97.01093,-42.43739 97.01093,-94.60847c0,-52.16398 -43.50775,-94.60137 -97.01093,-94.60137zm27.21786,94.60849c0,51.6142 -14.33887,87.5953 -27.21786,87.5953c-12.86442,0 -27.20306,-35.9811 -27.20306,-87.5953c0,-51.62841 14.33157,-87.58843 27.20306,-87.58843c12.87172,-0.0071 27.21786,35.96002 27.21786,87.58843zm-27.21786,-94.60849c-22.33911,0 -34.39411,48.74549 -34.39411,94.60137c0,45.86989 12.05499,94.60847 34.39411,94.60847c22.33934,0 34.41618,-48.74568 34.41618,-94.60847c-0.00728,-45.85589 -12.07684,-94.60137 -34.41618,-94.60137zm63.74409,94.60849c0,48.30152 -28.60537,87.5953 -63.74409,87.5953c-35.13142,0 -63.72224,-39.30088 -63.72224,-87.5953c0,-48.29465 28.59082,-87.58843 63.72224,-87.58843c35.13872,-0.0071 63.74409,39.29377 63.74409,87.58843zm-63.74409,-94.60849c-39.09197,0 -70.91328,42.43739 -70.91328,94.60137c0,52.17109 31.82131,94.60847 70.91328,94.60847c39.10654,0 70.92078,-42.43739 70.92078,-94.60847c0,-52.16398 -31.81425,-94.60137 -70.92078,-94.60137z" fill="none"/>
   <path stroke="#000" id="svg_22" d="m139.93025,96.07368c-4.55064,-7.10984 -10.11803,-12.866 -15.70252,-16.89266c-6.51622,4.12735 -14.45262,6.64059 -23.10484,6.64059c-8.66921,0 -16.61703,-2.51815 -23.12176,-6.64059c-5.58447,4.02666 -11.15755,9.78282 -15.71936,16.89266c-10.58956,16.50702 -11.75415,33.439 -2.60774,37.82924c4.09615,1.97766 8.3909,0.50363 12.82787,-3.19384c-0.7783,3.749 -1.23282,7.81244 -1.23282,12.06268c0,18.88272 8.48187,34.17852 18.93485,34.17852c6.30036,0 9.41923,-5.56954 10.91895,-14.09693c1.49419,8.52739 4.61303,14.09693 10.89056,14.09693c10.47016,0 18.95211,-15.29579 18.95211,-34.17852c0,-4.25024 -0.45466,-8.31367 -1.24989,-12.06268c4.44823,3.69747 8.73733,5.17151 12.84485,3.19384c9.14078,-4.39024 7.95899,-21.32223 -2.63027,-37.82924l-0.00001,0zm-38.81854,-16.69368c17.58838,0 31.85347,-12.33782 31.85347,-27.55745s-14.26509,-27.55748 -31.85347,-27.55748c-17.59436,0 -31.87072,12.34027 -31.87072,27.55748s14.27636,27.55745 31.87072,27.55745z" fill="#000000"/>
  </g>
 </g>
</svg>